<svg width="278" height="256" viewBox="0 0 278 256" fill="none" xmlns="http://www.w3.org/2000/svg">
<path d="M112.218 240.487C75.4079 222.466 50.5073 195.122 39.8975 161.151C36.8661 151.208 36 141.058 36 110.4V72.0784L47.4759 64.414C94.0293 33.3423 160.503 29.4066 213.119 54.8854C220.265 58.4068 229.792 63.5855 234.555 66.4855L243 71.8713L241.917 112.472C240.835 156.386 239.103 165.708 226.76 187.665C216.8 205.687 191.9 227.023 165.267 240.487C153.358 246.287 141.449 251.259 139.067 251.259C136.469 251.259 124.56 246.287 112.218 240.487Z" fill="#202356"/>
<path d="M107.53 173.494C82.1966 148.843 76.567 142.422 74.4017 134.758C69.8546 118.393 75.2678 101.822 87.8264 92.7071C102.334 82.3499 117.274 80.8999 133.73 88.5642C140.009 91.2571 141.525 91.4643 147.155 88.5642C163.178 80.6927 179.417 82.5571 192.842 93.95C202.369 101.822 206.483 110.936 206.483 122.95C206.483 138.486 201.503 145.529 170.756 174.529C154.517 189.651 140.659 202.287 139.793 202.701C138.71 202.908 124.203 189.858 107.53 173.494ZM145.206 184.679C147.371 181.365 144.99 178.465 125.286 159.822C107.53 143.458 102.117 137.036 100.385 130.407C97.5701 120.672 99.0858 111.764 104.932 102.029C107.097 98.3 109.046 94.7786 109.046 94.1572C109.046 93.7429 105.149 95.1929 100.385 97.4715C91.5073 101.822 83.0628 113.836 83.0628 122.329C83.0628 132.272 90.8577 143.043 114.026 165.415C127.234 178.051 139.143 188.615 140.442 188.615C141.742 188.615 143.69 186.958 145.206 184.679ZM172.705 158.993C192.626 140.143 196.523 133.308 195.007 119.429C194.141 110.936 192.842 108.036 186.13 102.236C179.417 96.2286 176.819 95.4 166.859 95.4C158.414 95.4 153.651 96.6429 148.021 100.372L140.442 105.343L134.38 101.2C128.534 97.2643 128.317 97.2643 121.605 100.993C113.377 105.55 107.747 117.357 110.129 125.85C111.211 130.407 153.001 174.115 156.249 174.115C156.682 174.115 164.044 167.279 172.705 158.993Z" fill="white"/>
<path d="M222.213 35.4454C215.285 30.2668 195.364 22.1881 178.908 18.0452C139.717 8.10227 107.454 11.2094 61.9833 29.231L53.3223 32.7525L58.7354 28.1953C61.7668 25.7096 69.5618 21.1524 76.2742 18.0452C121.312 -3.91213 184.754 2.50936 221.131 32.3382C228.926 38.7597 229.792 41.0383 222.213 35.4454Z" fill="#F06E3C"/>
</svg>
